<?xml version="1.0" encoding="iso-8859-1"?>
<!-- Generator: Adobe Illustrator 19.0.0, SVG Export Plug-In . SVG Version: 6.00 Build 0)  -->
<svg xmlns="http://www.w3.org/2000/svg" xmlns:xlink="http://www.w3.org/1999/xlink" version="1.1" id="Capa_1" x="0px" y="0px" viewBox="0 0 512 512" style="enable-background:new 0 0 512 512;" xml:space="preserve" width="512px" height="512px">
<g>
	<g>
		<g>
			<path d="M399.958,164.532c-13.515-21.117-31.453-39.047-52.575-52.554c-38.17-24.261-84.422-32.346-128.558-22.471     c-19.287,4.219-37.667,11.846-54.275,22.521c-21.121,13.511-39.052,31.453-52.55,52.583     c-24.387,38.118-32.485,84.418-22.483,128.55c4.223,19.291,11.85,37.674,22.525,54.288c13.513,21.117,31.451,39.047,52.575,52.55     c38.123,24.381,84.424,32.475,128.558,22.475c19.287-4.221,37.667-11.849,54.275-22.525c21.12-13.511,39.051-31.452,52.55-52.579     c24.387-38.118,32.485-84.418,22.483-128.55C418.261,199.529,410.633,181.146,399.958,164.532z M405.883,289.178L405.883,289.178     c-3.78,17.408-10.641,34.001-20.258,48.996c-12.168,19.045-28.33,35.219-47.367,47.4     c-34.271,21.795-75.791,29.098-115.442,20.304c-17.408-3.784-34.001-10.643-49-20.254c-19.047-12.17-35.22-28.335-47.4-47.375     c-21.92-34.224-29.23-75.797-20.3-115.446c3.78-17.408,10.641-34.001,20.258-48.996c12.169-19.049,28.334-35.224,47.375-47.404     c34.232-21.91,75.805-29.221,115.458-20.304c17.4,3.785,33.984,10.644,48.975,20.254c19.045,12.174,35.218,28.339,47.4,47.379     C407.503,207.956,414.814,249.53,405.883,289.178z" fill="#FFDA44"/>
			<path d="M282.108,372.482c-30.831,6.926-63.15,1.322-89.85-15.579c-14.886-9.503-27.53-22.126-37.058-36.996     c-7.435-11.57-12.751-24.371-15.7-37.804c-1.964-8.566-2.959-17.325-2.967-26.112c0-4.713-3.82-8.533-8.533-8.533     c-4.713,0-8.533,3.82-8.533,8.533c0.005,10.045,1.14,20.058,3.383,29.85c3.377,15.373,9.464,30.023,17.975,43.263     c10.858,16.953,25.272,31.343,42.242,42.175c13.371,8.543,28.158,14.634,43.667,17.987c9.602,2.184,19.42,3.278,29.267,3.259     c10.071-0.006,20.11-1.15,29.925-3.408c2.976-0.678,5.363-2.893,6.261-5.81s0.169-6.091-1.91-8.325     C288.196,372.748,285.082,371.795,282.108,372.482z" fill="#FFDA44"/>
			<path d="M328.933,140.695c-30.557-19.37-67.565-25.785-102.858-17.829c-4.586,1.06-7.447,5.634-6.395,10.222     c1.053,4.588,5.622,7.457,10.211,6.411c30.827-6.932,63.145-1.331,89.842,15.571c14.891,9.503,27.538,22.13,37.067,37.004     c7.424,11.548,12.735,24.325,15.683,37.733c1.019,4.596,5.567,7.498,10.164,6.487c4.597-1.011,7.507-5.555,6.503-10.154     c-3.377-15.373-9.463-30.023-17.975-43.263C360.315,165.924,345.902,151.532,328.933,140.695z" fill="#FFDA44"/>
			<path d="M508.108,211.82c-0.728-4.068-4.267-7.03-8.4-7.029h-45.475c-4.724-18.544-12.091-36.312-21.875-52.758l32.175-32.175     c2.927-2.925,3.331-7.53,0.958-10.921c-16.969-24.332-38.109-45.47-62.442-62.437c-3.39-2.373-7.995-1.967-10.917,0.962     l-32.175,32.175c-16.446-9.784-34.214-17.151-52.758-21.875V12.278c0.001-4.134-2.963-7.674-7.033-8.4     c-29.219-5.158-59.115-5.158-88.333,0c-4.07,0.726-7.034,4.266-7.033,8.4v45.483c-18.544,4.724-36.312,12.091-52.758,21.875     l-32.175-32.175c-2.922-2.929-7.527-3.335-10.917-0.962c-24.333,16.967-45.473,38.105-62.442,62.437     c-2.373,3.391-1.969,7.995,0.958,10.921l32.175,32.175c-9.784,16.446-17.151,34.214-21.875,52.758H12.292     c-4.133-0.001-7.672,2.961-8.4,7.029c-5.189,29.219-5.189,59.123,0,88.342c0.728,4.068,4.267,7.03,8.4,7.029h45.475     c4.724,18.544,12.091,36.312,21.875,52.758l-32.175,32.175c-2.927,2.926-3.331,7.53-0.958,10.921     c16.969,24.332,38.108,45.47,62.442,62.437c3.392,2.364,7.991,1.959,10.917-0.962l32.175-32.175     c16.446,9.784,34.214,17.151,52.758,21.875v45.483c-0.001,4.134,2.963,7.674,7.033,8.4c29.216,5.183,59.117,5.183,88.333,0     c4.07-0.726,7.034-4.266,7.033-8.4V454.22c18.544-4.724,36.312-12.091,52.758-21.875l32.175,32.175     c2.926,2.922,7.525,3.327,10.917,0.962c24.333-16.967,45.473-38.105,62.442-62.438c2.373-3.391,1.969-7.995-0.958-10.921     l-32.175-32.175c9.784-16.446,17.151-34.214,21.875-52.758h45.475c4.133,0.001,7.672-2.961,8.4-7.029     C513.297,270.943,513.297,241.038,508.108,211.82z M492.45,290.124h-44.958c-4.007-0.001-7.474,2.787-8.333,6.7     c-4.642,21.24-13.038,41.481-24.792,59.771c-2.168,3.377-1.69,7.809,1.15,10.646l31.817,31.817     c-13.65,18.355-29.911,34.614-48.267,48.263l-31.817-31.817c-2.841-2.834-7.271-3.311-10.65-1.146     c-18.289,11.753-38.528,20.147-59.767,24.788c-3.913,0.861-6.7,4.327-6.7,8.333v44.971c-22.637,3.283-45.63,3.283-68.267,0     v-44.971c0-4.006-2.787-7.473-6.7-8.333c-21.238-4.64-41.478-13.034-59.767-24.788c-3.377-2.174-7.813-1.697-10.65,1.146     l-31.817,31.817c-18.356-13.648-34.617-29.908-48.267-48.263l31.817-31.817c2.84-2.836,3.318-7.268,1.15-10.646     c-11.754-18.29-20.15-38.531-24.792-59.771c-0.859-3.914-4.327-6.701-8.334-6.7H19.55c-3.311-22.635-3.311-45.632,0-68.267     h44.958c4.007,0.001,7.474-2.787,8.333-6.7c4.642-21.24,13.038-41.481,24.792-59.771c2.168-3.377,1.69-7.809-1.15-10.646     l-31.817-31.817c13.65-18.355,29.911-34.614,48.267-48.262l31.817,31.817c2.837,2.842,7.273,3.319,10.65,1.146     c18.289-11.753,38.528-20.147,59.767-24.788c3.913-0.861,6.7-4.327,6.7-8.333V19.532c22.637-3.283,45.63-3.283,68.267,0v44.971     c0,4.006,2.787,7.473,6.7,8.333c21.239,4.64,41.478,13.034,59.767,24.788c3.379,2.164,7.808,1.687,10.65-1.146l31.817-31.817     c18.356,13.648,34.617,29.908,48.267,48.263l-31.817,31.817c-2.84,2.836-3.318,7.268-1.15,10.646     c11.754,18.29,20.15,38.531,24.792,59.771c0.859,3.914,4.327,6.702,8.334,6.701h44.958     C495.761,244.492,495.761,267.489,492.45,290.124z" fill="#FFDA44"/>
			<path d="M330.3,193.757c3.281-3.341,3.256-8.701-0.054-12.012c-3.311-3.311-8.671-3.335-12.012-0.054l-8.157,8.157     c-18.798-15.785-46.332-15.382-64.659,0.947c-9.182,9.347-13.742,22.287-12.45,35.325c0.944,10.682,4.927,20.87,11.477,29.36     l-42.411,42.411c-9.357-11.96-9.009-28.853,0.834-40.417c3.332-3.332,3.332-8.735,0-12.067c-3.332-3.332-8.734-3.332-12.067,0     c-16.331,18.328-16.734,45.865-0.945,64.662l-8.155,8.155c-2.188,2.149-3.055,5.307-2.27,8.271c0.785,2.965,3.1,5.28,6.065,6.065     s6.122-0.082,8.271-2.27l8.092-8.092c9.558,7.339,21.234,11.389,33.283,11.546c12.441,0.287,24.401-4.81,32.809-13.984     c8.409-9.174,12.448-21.53,11.082-33.9c-0.944-10.682-4.927-20.87-11.477-29.36l42.411-42.411     c9.357,11.96,9.009,28.853-0.834,40.417c-3.332,3.332-3.332,8.735,0,12.067c3.332,3.332,8.735,3.332,12.067,0     c16.331-18.328,16.734-45.865,0.945-64.662L330.3,193.757z M254.516,309.12c-11.564,9.841-28.455,10.191-40.417,0.837     l41.255-41.255c3.772,5.48,6.067,11.841,6.662,18.467l0,0C262.889,295.236,260.142,303.274,254.516,309.12z M256.645,243.278     c-3.772-5.48-6.067-11.841-6.662-18.467l0,0c-0.872-8.066,1.874-16.104,7.5-21.95c11.56-9.852,28.459-10.203,40.417-0.837     L256.645,243.278z" fill="#FFDA44"/>
		</g>
	</g>
</g>
<g>
</g>
<g>
</g>
<g>
</g>
<g>
</g>
<g>
</g>
<g>
</g>
<g>
</g>
<g>
</g>
<g>
</g>
<g>
</g>
<g>
</g>
<g>
</g>
<g>
</g>
<g>
</g>
<g>
</g>
</svg>
